PathFileType	4	(X/Y/Z)	E:\Qualisys_Data\Carbon_Farble_Plate\Data\Amateur_Runner\S1\T3\S1T3V13_c3d.trc
DataRate	CameraRate	NumFrames	NumMarkers	Units	OrigDataRate	OrigDataStartFrame	OrigNumFrames
200.000000	200.000000	4	39	mm	200.000000	198	318
Frame#	Time	LSHO			RSHO			LICST			RICST			LASIS			LHEEL			RASIS			LTROC			RTROC			SACR			LTH1			LSK4			LTH2			LTH3			RHM5			LSK2			LTH4			RTH1			LTOE			RTH2			RTH3			RTH4			LLEP			RLEP			LSK1			LSK3			RSK1			LHM5			RSK2			LFT1			RSK3			RSK4			LLME			RLME			RTOE			RHEEL			RFT1			RFT2			LFT2			
		X1	Y1	Z1	X2	Y2	Z2	X3	Y3	Z3	X4	Y4	Z4	X5	Y5	Z5	X6	Y6	Z6	X7	Y7	Z7	X8	Y8	Z8	X9	Y9	Z9	X10	Y10	Z10	X11	Y11	Z11	X12	Y12	Z12	X13	Y13	Z13	X14	Y14	Z14	X15	Y15	Z15	X16	Y16	Z16	X17	Y17	Z17	X18	Y18	Z18	X19	Y19	Z19	X20	Y20	Z20	X21	Y21	Z21	X22	Y22	Z22	X23	Y23	Z23	X24	Y24	Z24	X25	Y25	Z25	X26	Y26	Z26	X27	Y27	Z27	X28	Y28	Z28	X29	Y29	Z29	X30	Y30	Z30	X31	Y31	Z31	X32	Y32	Z32	X33	Y33	Z33	X34	Y34	Z34	X35	Y35	Z35	X36	Y36	Z36	X37	Y37	Z37	X38	Y38	Z38	X39	Y39	Z39	

199	0.99	931.916015625	1502.101196289062	-570.640869140625	936.1334838867188	1464.581665039062	-241.9617767333984	889.9854125976562	1020.168273925781	-555.1932983398438	889.412109375	1040.085083007812	-256.472900390625	934.028076171875	982.9940185546876	-528.7423706054688	690.2344360351562	328.4506530761719	-469.3130493164062	926.5390625	990.77734375	-263.1783752441406	839.9520874023438	896.4888305664062	-575.57568359375	810.216796875	906.9151000976562	-239.7180480957031	772.047607421875	1046.736572265625	-403.8417053222656	1022.197998046875	810.538330078125	-548.1671752929688	819.509765625	423.9551391601562	-499.050537109375	956.32470703125	765.445556640625	-580.6583862304688	1075.44970703125	721.2459716796875	-541.4790649414062	745.9007568359375	57.85416793823242	-284.336669921875	899.912841796875	479.2137756347656	-535.3195190429688	1004.939453125	678.0628051757812	-563.9182739257812	929.513916015625	766.7767944335938	-257.8776245117188	857.845703125	140.7801971435547	-477.5147094726562	853.43505859375	770.5673217773438	-231.9796142578125	920.2095336914062	666.3873291015625	-269.5919799804688	841.04931640625	673.054931640625	-250.8393707275391	1090.4091796875	560.2003173828125	-531.5189819335938	850.2669067382812	500.9926147460938	-294.7619934082031	945.7840576171876	408.9046936035156	-530.3974609375	858.542236328125	357.6478271484375	-524.0191040039062	769.0633544921875	327.6239624023438	-282.5347900390625	791.6792602539062	175.6262817382812	-533.871826171875	696.6970825195312	364.3486633300781	-284.9663391113281	678.6405029296875	302.7322692871094	-438.3573608398438	725.333251953125	237.9374084472656	-295.2019653320312	654.4454345703125	276.3938598632812	-309.1697998046875	747.7398681640625	309.5606079101562	-516.8978271484375	635.2920532226562	141.3919830322266	-293.3250427246094	798.989990234375	56.31052398681641	-357.770263671875	552.8649291992188	113.9125366210938	-332.6542358398438	556.5726928710938	86.24431610107422	-361.6294250488281	552.1092529296875	91.71627807617188	-308.7854309082031	670.6366577148438	302.3998718261719	-488.6692810058594
200	0.995	945.5128173828124	1505.890502929688	-571.3480834960938	953.9888305664062	1469.028930664062	-243.2567749023438	907.4309692382812	1024.587524414062	-555.4295043945312	906.1867065429688	1043.014282226562	-256.1377868652344	950.4028930664062	987.1109008789062	-529.3464965820312	718.7525024414062	318.1699523925781	-469.4916381835938	943.2059326171876	993.1531372070312	-263.3593444824219	857.9594116210938	901.441162109375	-576.8706665039062	825.7508544921875	910.3295288085938	-240.4869689941406	788.8134155273438	1050.34326171875	-404.2437438964844	1040.291259765625	816.5834350585938	-547.40673828125	843.0474853515625	419.3372192382812	-499.1720275878906	975.3441162109376	770.861328125	-581.008544921875	1094.20458984375	728.0142211914062	-540.742431640625	747.0704345703125	58.06686401367188	-284.6268005371094	921.69775390625	477.7904357910156	-534.7153930664062	1023.982666015625	683.7472534179688	-563.7550048828125	942.6507568359376	768.7775268554688	-259.3550720214844	893.6876220703125	137.9424743652344	-477.5595703125	866.5515747070312	774.0853271484375	-232.4823608398438	931.0531616210938	668.2743530273438	-271.1626892089844	852.540771484375	676.6414184570312	-251.2153167724609	1110.068359375	566.1044921875	-530.8346557617188	857.1273193359375	504.4772033691406	-295.3548889160156	970.47265625	409.5939636230469	-530.5692749023438	885.4512329101562	354.634521484375	-524.5844116210938	774.2061767578125	332.1514587402344	-282.6954040527344	826.1591796875	169.7969818115234	-534.0477294921875	702.1013793945312	369.5763549804688	-286.3103332519531	708.2149047851562	292.2792053222656	-438.4571838378906	729.6685180664062	242.7366790771484	-294.8829956054688	659.2324829101562	281.6367797851562	-310.0391235351562	776.8660278320312	301.8447875976562	-517.0732421875	639.0260620117188	146.4622955322266	-293.2977600097656	800.2835083007812	55.74346542358398	-357.8794555664062	555.9593505859375	120.3495025634766	-332.6705932617188	559.2190551757812	91.48052978515624	-362.1637573242188	555.1425170898438	97.5748291015625	-309.0209655761719	700.4207153320312	291.00537109375	-488.2257690429688
201	1.0	958.5114135742188	1509.444458007812	-572.191650390625	972.1805419921876	1473.674926757812	-244.5882263183594	924.2529907226562	1029.02783203125	-555.6838989257812	923.0123901367188	1045.664672851562	-256.3490295410156	967.3961181640624	991.0746459960938	-528.9153442382812	746.8739013671875	307.8955688476562	-469.8300476074219	959.7329711914062	995.865478515625	-263.3338623046875	875.8541259765625	905.9337158203124	-577.9959106445312	841.5964965820312	913.6932983398438	-241.6314392089844	805.989013671875	1054.182250976562	-405.0039978027344	1057.984375	822.2483520507812	-546.7548828125	868.1581420898438	414.0231323242188	-498.8495483398438	993.9815063476562	776.3336791992188	-580.9509887695312	1112.541137695312	734.0867919921875	-539.418701171875	748.5980834960938	58.74889373779297	-284.9903869628906	943.5576782226562	475.9502563476562	-534.2540283203125	1043.154418945312	689.3953247070312	-563.354736328125	955.586181640625	770.8999633789062	-260.3440246582031	930.1094360351562	135.3231811523438	-477.8113098144531	879.6047973632812	777.7117919921875	-233.6295928955078	941.8562622070312	670.5116577148438	-272.2113342285156	863.19482421875	680.6862182617188	-252.3357391357422	1128.917236328125	571.9808349609375	-530.1187744140625	864.4181518554688	508.9473876953125	-295.7982482910156	995.0755615234376	409.5651245117188	-530.43310546875	912.5042724609376	351.3487243652344	-524.8810424804688	779.6575317382812	337.0758361816406	-282.6395263671875	861.3828125	164.1757354736328	-534.5631103515625	707.9812622070312	375.072021484375	-286.9927062988281	737.26123046875	281.1328430175781	-438.7240295410156	734.6871337890625	247.55859375	-294.7150573730469	664.466796875	287.1449584960938	-310.5603637695312	806.0818481445312	293.6172180175781	-516.9002075195312	643.46533203125	151.5359039306641	-293.5221557617188	801.527099609375	55.61410903930664	-357.7119445800781	560.2958984375	126.5911636352539	-332.9737854003906	562.4514770507812	97.7402114868164	-362.2586975097656	558.6802368164062	104.1944351196289	-309.1184997558594	730.0806274414062	280.3517761230469	-488.8579711914062
202	1.005	972.1714477539062	1513.519653320312	-572.9034423828125	990.1854858398438	1478.056762695312	-245.8072814941406	941.612060546875	1033.165771484375	-555.369384765625	940.5128173828124	1048.120727539062	-257.0787048339844	984.2376708984376	994.8414916992188	-529.0006103515625	775.7802734375	297.4469299316406	-470.4550476074219	976.461181640625	998.6831665039062	-263.8616638183594	893.7590942382812	910.3779296875	-579.0798950195312	857.4898071289062	917.7930297851562	-242.4573516845703	822.5384521484375	1058.20849609375	-405.4606628417969	1075.977661132812	827.9747314453125	-545.7102661132812	892.7816772460938	408.5704345703125	-498.7204895019531	1012.557922363281	781.9138793945312	-581.181884765625	1130.65478515625	739.513916015625	-536.6458740234375	749.6737670898438	59.18606185913086	-284.6821899414062	965.1182861328124	473.1012878417969	-534.3930053710938	1062.088500976562	695.3136596679688	-563.815185546875	968.407958984375	773.05078125	-261.3418884277344	966.3646850585938	132.747802734375	-478.0074462890625	892.98974609375	781.3011474609375	-234.7547149658203	952.8048095703124	673.1319580078125	-273.3711853027344	874.6453857421875	684.8875732421875	-253.0869598388672	1147.271118164062	577.0465087890625	-529.4152221679688	872.4027099609375	513.24365234375	-296.1036682128906	1019.64306640625	409.361572265625	-530.2952880859375	939.6276245117188	347.7461853027344	-525.073974609375	785.7312622070312	342.2837829589844	-282.3330078125	896.6705322265625	158.8391876220703	-534.71484375	714.0405883789062	380.502685546875	-287.3389282226562	767.86083984375	270.7471923828125	-439.0738220214844	739.6689453125	253.2758941650391	-294.3744812011719	670.1715698242188	292.6824035644531	-311.0045166015625	835.635498046875	286.1812133789062	-517.4767456054688	648.1554565429688	157.0100860595703	-293.3099365234375	803.0865478515625	54.85774993896484	-357.4506225585938	564.1278076171875	133.2228393554688	-333.0137634277344	565.601806640625	104.2642440795898	-362.6352233886719	562.1602783203125	110.6078186035156	-309.0636901855469	758.1435546875	270.1591796875	-490.4319152832031
